<svg xmlns="http://www.w3.org/2000/svg" baseProfile="full" version="1.1" style="fill: none;" width="255px" height="255px"><path style="stroke-width: 15px; stroke-linecap: round; stroke-linejoin: round; stroke: rgb(0, 0, 0); fill: rgb(0, 0, 0);" d="M120,60 L120,60 L120,120 L240,120 L240,60 L210,30 L150,30 L150,30 L120,60 M150,120 L150,120 L150,180 L150,180 M180,180 L180,180 L180,120 L180,120 M210,120 L210,120 L210,180 L210,180 Z "/><path style="stroke-width: 12px; stroke-linecap: round; stroke-linejoin: round; stroke: rgb(255, 255, 255); fill: none;" d="M150,60 L150,60 L150,75 M210,60 L210,60 L210,75 M150,90 L150,90 L165,105 L180,90 L195,105 L210,90 "/><path style="stroke-width: 15px; stroke-linecap: round; stroke-linejoin: round; stroke: rgb(0, 0, 0); fill: rgb(0, 0, 0);" d=""/></svg>