# Blender 5.0.1
# www.blender.org
mtllib model.mtl
o beveled_cuboid
v 0.187500 0.937500 0.234375
v 0.187500 0.937500 -0.234375
v -0.187500 0.937500 0.234375
v -0.187500 0.937500 -0.234375
v 0.187500 0.437500 0.234375
v 0.187500 0.437500 -0.234375
v -0.187500 0.437500 0.234375
v -0.187500 0.437500 -0.234375
v -0.250000 0.562500 0.234375
v -0.250000 0.812500 0.234375
v -0.250000 0.562500 -0.234375
v -0.250000 0.812500 -0.234375
v 0.250000 0.562500 0.234375
v 0.250000 0.812500 0.234375
v 0.250000 0.562500 -0.234375
v 0.250000 0.812500 -0.234375
v 0.187500 0.562500 -0.312500
v 0.187500 0.812500 -0.312500
v -0.187500 0.562500 -0.312500
v -0.187500 0.812500 -0.312500
v 0.187500 0.562500 0.312500
v 0.187500 0.812500 0.312500
v -0.187500 0.562500 0.312500
v -0.187500 0.812500 0.312500
v 0.187500 0.437500 -0.078125
v -0.187500 0.437500 -0.078125
v 0.187500 0.437500 0.078125
v -0.187500 0.437500 0.078125
v -0.250000 0.562500 -0.078125
v -0.250000 0.562500 0.078125
v -0.250000 0.812500 -0.078125
v -0.250000 0.812500 0.078125
v -0.187500 0.937500 -0.078125
v -0.187500 0.937500 0.078125
v 0.187500 0.937500 -0.078125
v 0.187500 0.937500 0.078125
v 0.250000 0.812500 -0.078125
v 0.250000 0.812500 0.078125
v 0.250000 0.562500 -0.078125
v 0.250000 0.562500 0.078125
v 0.062500 0.250000 0.078125
v 0.062500 0.250000 -0.078125
v -0.062500 0.250000 0.078125
v -0.062500 0.250000 -0.078125
v 0.062500 0.250000 -0.234375
v -0.062500 0.250000 -0.234375
v 0.062500 0.562500 -0.312500
v -0.062500 0.562500 -0.312500
v 0.062500 0.812500 -0.312500
v -0.062500 0.812500 -0.312500
v 0.062500 1.062500 -0.234375
v -0.062500 1.062500 -0.234375
v 0.062500 0.937500 -0.078125
v -0.062500 0.937500 -0.078125
v 0.062500 0.937500 0.078125
v -0.062500 0.937500 0.078125
v 0.062500 1.062500 0.234375
v -0.062500 1.062500 0.234375
v 0.062500 0.812500 0.312500
v -0.062500 0.812500 0.312500
v 0.062500 0.562500 0.312500
v -0.062500 0.562500 0.312500
v 0.062500 0.250000 0.234375
v -0.062500 0.250000 0.234375
v 0.062500 0.437500 -0.000000
v 0.187500 0.437500 -0.000000
v 0.250000 0.562500 -0.000000
v 0.250000 0.812500 -0.000000
v 0.187500 0.937500 -0.000000
v 0.062500 0.937500 -0.000000
v -0.062500 0.937500 -0.000000
v -0.187500 0.937500 -0.000000
v -0.250000 0.812500 -0.000000
v -0.250000 0.562500 -0.000000
v -0.187500 0.437500 -0.000000
v -0.062500 0.437500 -0.000000
v 0.250000 0.625000 0.078125
v 0.250000 0.625000 0.234375
v 0.187500 0.625000 0.312500
v 0.062500 0.625000 0.312500
v -0.062500 0.625000 0.312500
v -0.187500 0.625000 0.312500
v -0.250000 0.625000 0.234375
v -0.250000 0.625000 0.078125
v -0.250000 0.625000 -0.000000
v -0.250000 0.625000 -0.078125
v -0.250000 0.625000 -0.234375
v -0.187500 0.625000 -0.312500
v -0.062500 0.625000 -0.312500
v 0.062500 0.625000 -0.312500
v 0.187500 0.625000 -0.312500
v 0.250000 0.625000 -0.234375
v 0.250000 0.625000 -0.078125
v 0.250000 0.625000 -0.000000
vn 1.0000 -0.0000 -0.0000
vn -1.0000 -0.0000 -0.0000
vn -0.6154 0.6155 -0.4924
vn -0.6155 0.6155 -0.4923
vn -0.6154 0.6155 -0.4923
vn -0.8321 -0.5547 -0.0000
vn -0.0000 -0.0000 1.0000
vn -0.0000 -0.0000 -1.0000
vn 0.8944 0.4472 -0.0000
vn -0.8944 0.4472 -0.0000
vn -0.0000 0.2983 0.9545
vn -0.2858 0.2859 -0.9147
vn -0.2858 0.2858 -0.9147
vn 0.8944 -0.4472 -0.0000
vn -0.8944 -0.4472 -0.0000
vn -0.3418 -0.2279 0.9117
vn -0.3419 -0.2279 0.9117
vn -0.0000 -0.2426 -0.9701
vn -0.0000 -0.2425 -0.9701
vn 0.7809 -0.0000 -0.6247
vn 0.7809 -0.0000 0.6247
vn -0.7809 -0.0000 -0.6247
vn -0.7809 -0.0000 0.6247
vn 0.7274 -0.3637 0.5819
vn -0.7274 -0.3637 0.5819
vn 0.7274 -0.3637 -0.5819
vn -0.7274 -0.3637 -0.5819
vn 0.7274 0.3637 0.5819
vn -0.7274 0.3637 0.5819
vn 0.7274 0.3637 -0.5819
vn -0.7274 0.3637 -0.5819
vn -0.0000 -0.3846 0.9231
vn -0.0000 0.7809 0.6247
vn -0.0000 1.0000 -0.0000
vn -0.0000 -1.0000 -0.0000
vn 0.0001 -1.0000 -0.0001
vn 0.8321 -0.5547 -0.0000
vn 0.3418 -0.2279 -0.9117
vn 0.3419 -0.2279 -0.9117
vn -0.0000 0.2983 -0.9545
vn 0.6154 0.6155 0.4924
vn 0.6155 0.6155 0.4923
vn 0.6154 0.6155 0.4923
vn -0.0000 0.7809 -0.6247
vn 0.2858 0.2859 0.9147
vn 0.2858 0.2858 0.9147
vn -0.0000 -0.2426 0.9701
vn -0.0000 -0.2425 0.9701
vn -0.0000 -0.3846 -0.9231
vn -0.0001 -1.0000 0.0001
vt 0.230469 0.855686
vt 0.230469 0.808811
vt 0.269531 0.808811
vt 0.269531 0.855686
vt 0.121094 0.965061
vt 0.121094 0.918186
vt 0.160156 0.918186
vt 0.160156 0.965061
vt 0.421875 0.703125
vt 0.421875 0.750000
vt 0.375000 0.727902
vt 0.385880 0.703125
vt 0.121094 0.867622
vt 0.121094 0.811284
vt 0.160156 0.811284
vt 0.160156 0.867622
vt 0.002275 0.715769
vt 0.002275 0.668894
vt 0.033525 0.668894
vt 0.033525 0.715769
vt 0.189775 0.606394
vt 0.189775 0.559519
vt 0.221025 0.559519
vt 0.221025 0.606394
vt 0.269531 0.890625
vt 0.230469 0.890625
vt 0.160156 1.000000
vt 0.121094 1.000000
vt 0.033525 0.781250
vt 0.002275 0.751422
vt 0.222385 0.642047
vt 0.189774 0.671875
vt 0.219721 0.606394
vt 0.230469 0.758247
vt 0.269531 0.758247
vt 0.269531 0.793186
vt 0.230469 0.793186
vt 0.160156 0.902561
vt 0.121094 0.902561
vt 0.000271 0.618215
vt 0.033526 0.572740
vt 0.033525 0.653269
vt 0.004157 0.653269
vt 0.221025 0.543894
vt 0.189775 0.543894
vt 0.189775 0.463364
vt 0.221025 0.508839
vt 0.347656 0.855687
vt 0.360752 0.810678
vt 0.384769 0.817666
vt 0.371673 0.862675
vt 0.206452 0.862674
vt 0.193356 0.817665
vt 0.217373 0.810678
vt 0.018952 0.972049
vt 0.005856 0.927040
vt 0.029873 0.920053
vt 0.042969 0.965061
vt 0.160156 0.965062
vt 0.173252 0.920053
vt 0.197269 0.927041
vt 0.184173 0.972050
vt 0.230469 0.793185
vt 0.206452 0.786197
vt 0.160156 0.867623
vt 0.184173 0.895573
vt 0.347656 0.758248
vt 0.371673 0.786198
vt 0.347656 0.793186
vt 0.042969 0.867622
vt 0.042969 0.902560
vt 0.018952 0.895572
vt 0.230469 0.890624
vt 0.347656 0.890625
vt 0.042969 0.999999
vt 0.042969 0.811284
vt 0.082031 0.811284
vt 0.082031 0.867622
vt 0.156250 0.730469
vt 0.156250 0.781250
vt 0.125000 0.781250
vt 0.125000 0.773737
vt 0.082031 0.902561
vt 0.042969 0.902561
vt 0.101562 0.867622
vt 0.101562 0.902561
vt 0.042969 0.918186
vt 0.082031 0.918186
vt 0.082031 0.965061
vt 0.101562 0.918186
vt 0.101562 0.965061
vt 0.082031 1.000000
vt 0.042969 1.000000
vt 0.101562 1.000000
vt 0.250000 0.621850
vt 0.281250 0.621850
vt 0.281250 0.671875
vt 0.250000 0.652353
vt 0.218750 1.000000
vt 0.218750 0.980469
vt 0.250000 0.980469
vt 0.250000 1.000000
vt 0.308594 0.890625
vt 0.308594 0.855686
vt 0.347656 0.855686
vt 0.289062 0.890625
vt 0.289062 0.855686
vt 0.308594 0.808811
vt 0.347656 0.808811
vt 0.289062 0.808811
vt 0.308594 0.793186
vt 0.308594 0.758247
vt 0.347656 0.758247
vt 0.289062 0.793186
vt 0.289062 0.758247
vt 0.250000 0.921875
vt 0.250000 0.937500
vt 0.218750 0.937500
vt 0.218750 0.921875
vt 0.187500 0.730469
vt 0.187500 0.781250
vt 0.308594 0.701909
vt 0.347656 0.701909
vt 0.437500 1.000000
vt 0.406250 1.000000
vt 0.406250 0.953125
vt 0.437500 0.953125
vt 0.125271 0.508840
vt 0.158526 0.463365
vt 0.158525 0.543894
vt 0.129157 0.543894
vt 0.158525 0.463364
vt 0.127275 0.606394
vt 0.127275 0.559519
vt 0.158525 0.559519
vt 0.158525 0.606394
vt 0.158525 0.671875
vt 0.127275 0.642047
vt 0.189775 0.671875
vt 0.437500 0.875000
vt 0.437500 0.921875
vt 0.390625 0.899777
vt 0.401505 0.875000
vt 0.312500 0.671875
vt 0.312500 0.621850
vt 0.281250 1.000000
vt 0.281250 0.980469
vt 0.312500 0.980469
vt 0.312500 1.000000
vt 0.328125 0.621850
vt 0.359375 0.621850
vt 0.359375 0.671875
vt 0.328125 0.652353
vt 0.390625 0.621850
vt 0.390625 0.671875
vt 0.097385 0.751422
vt 0.064774 0.781250
vt 0.064775 0.715769
vt 0.094721 0.715769
vt 0.064775 0.781250
vt 0.064775 0.668894
vt 0.096025 0.668894
vt 0.096025 0.715769
vt 0.096025 0.653269
vt 0.064775 0.653269
vt 0.064775 0.572739
vt 0.096025 0.618214
vt 0.033525 0.572739
vt 0.230469 0.701909
vt 0.269531 0.701909
vt 0.437500 0.859375
vt 0.406250 0.859375
vt 0.406250 0.812500
vt 0.437500 0.812500
vt 0.359375 0.949219
vt 0.359375 1.000000
vt 0.328125 1.000000
vt 0.328125 0.992487
vt 0.312500 0.960938
vt 0.281250 0.960938
vt 0.250000 0.960938
vt 0.218750 0.960938
vt 0.265625 0.937500
vt 0.265625 0.921875
vt 0.296875 0.921875
vt 0.296875 0.937500
vt 0.390625 0.949219
vt 0.390625 1.000000
vt 0.213008 0.795675
vt 0.188991 0.802662
vt 0.002275 0.653269
vt 0.201634 0.912039
vt 0.177617 0.905051
vt 0.025508 0.905050
vt 0.001491 0.912037
vt 0.127275 0.543894
vt 0.389134 0.802664
vt 0.365117 0.795676
s 1
usemtl m_9e211a9b-361a-2fdf-e30e-93e0c0be456d
f 14/1/1 78/2/1 77/3/1 38/4/1
f 32/5/2 84/6/2 83/7/2 10/8/2
f 3/9/3 58/10/4 56/11/3 34/12/5
f 28/13/6 43/14/6 64/15/6 7/16/6
f 24/17/7 82/18/7 81/19/7 60/20/7
f 50/21/8 89/22/8 88/23/8 20/24/8
f 14/1/9 38/4/9 36/25/9 1/26/9
f 3/27/10 34/28/10 32/5/10 10/8/10
f 24/17/11 60/20/11 58/29/11 3/30/11
f 4/31/12 52/32/12 50/21/13 20/33/13
f 5/34/14 27/35/14 40/36/14 13/37/14
f 9/38/15 30/39/15 28/13/15 7/16/15
f 7/40/16 64/41/17 62/42/17 23/43/17
f 19/44/18 48/45/19 46/46/19 8/47/19
f 16/48/20 92/49/20 91/50/20 18/51/20
f 22/52/21 79/53/21 78/54/21 14/1/21
f 20/55/22 88/56/22 87/57/22 12/58/22
f 10/59/23 83/60/23 82/61/23 24/62/23
f 5/34/24 13/63/24 21/64/24
f 7/65/25 23/66/25 9/38/25
f 6/67/26 17/68/26 15/69/26
f 8/70/27 11/71/27 19/72/27
f 1/73/28 22/52/28 14/1/28
f 3/27/29 10/59/29 24/62/29
f 2/74/30 16/48/30 18/51/30
f 4/75/31 20/55/31 12/58/31
f 8/70/6 46/76/6 44/77/6 26/78/6
f 44/79/32 76/80/32 75/81/32 26/82/32
f 8/70/15 26/78/15 29/83/15 11/84/15
f 26/78/15 75/85/15 74/86/15 29/83/15
f 12/58/2 87/87/2 86/88/2 31/89/2
f 31/89/2 86/88/2 85/90/2 73/91/2
f 12/58/10 31/89/10 33/92/10 4/93/10
f 31/89/10 73/91/10 72/94/10 33/92/10
f 33/95/33 54/96/33 52/97/33 4/98/33
f 33/99/34 72/100/34 71/101/34 54/102/34
f 2/74/9 35/103/9 37/104/9 16/105/9
f 35/103/9 69/106/9 68/107/9 37/104/9
f 37/104/1 93/108/1 92/109/1 16/105/1
f 68/107/1 94/110/1 93/108/1 37/104/1
f 15/69/14 39/111/14 25/112/14 6/113/14
f 39/111/14 67/114/14 66/115/14 25/112/14
f 25/116/35 66/117/35 65/118/36 42/119/35
f 42/120/32 65/121/32 76/80/32 44/79/32
f 25/112/37 42/122/37 45/123/37 6/113/37
f 42/124/35 44/125/35 46/126/35 45/127/35
f 6/128/38 45/129/39 47/130/39 17/131/39
f 45/132/19 46/46/19 48/45/19 47/130/19
f 18/133/8 91/134/8 90/135/8 49/136/8
f 49/136/8 90/135/8 89/22/8 50/21/8
f 18/133/40 49/136/40 51/137/40 2/138/40
f 49/136/40 50/21/40 52/139/40 51/137/40
f 2/140/41 51/141/42 53/142/41 35/143/43
f 51/144/33 52/97/33 54/96/33 53/145/33
f 53/146/34 70/147/34 69/148/34 35/149/34
f 54/102/34 71/101/34 70/147/34 53/146/34
f 36/150/44 55/151/44 57/152/44 1/153/44
f 55/151/44 56/154/44 58/155/44 57/152/44
f 1/156/45 57/157/45 59/158/46 22/159/46
f 57/160/11 58/29/11 60/20/11 59/158/11
f 59/158/7 80/161/7 79/162/7 22/163/7
f 60/20/7 81/19/7 80/161/7 59/158/7
f 21/164/47 61/165/48 63/166/48 5/167/48
f 61/165/48 62/42/48 64/168/48 63/166/48
f 5/34/37 63/169/37 41/170/37 27/35/37
f 63/171/35 64/172/35 43/173/35 41/174/35
f 41/175/49 65/176/49 66/177/49 27/178/49
f 27/35/14 66/115/14 67/114/14 40/36/14
f 38/4/1 77/3/1 94/110/1 68/107/1
f 38/4/9 68/107/9 69/106/9 36/25/9
f 36/179/34 69/148/34 70/147/34 55/180/34
f 55/180/34 70/147/34 71/101/34 56/181/34
f 56/181/34 71/101/34 72/100/34 34/182/34
f 34/28/10 72/94/10 73/91/10 32/5/10
f 73/91/2 85/90/2 84/6/2 32/5/2
f 30/39/15 74/86/15 75/85/15 28/13/15
f 28/183/35 75/184/35 76/185/50 43/186/35
f 43/187/49 76/188/49 65/176/49 41/175/49
f 40/36/1 77/3/1 78/2/1 13/37/1
f 13/189/21 78/54/21 79/53/21 21/190/21
f 21/164/7 79/162/7 80/161/7 61/165/7
f 61/165/7 80/161/7 81/19/7 62/42/7
f 62/42/7 81/19/7 82/18/7 23/191/7
f 23/192/23 82/61/23 83/60/23 9/193/23
f 9/38/2 83/7/2 84/6/2 30/39/2
f 30/39/2 84/6/2 85/90/2 74/86/2
f 74/86/2 85/90/2 86/88/2 29/83/2
f 29/83/2 86/88/2 87/87/2 11/84/2
f 11/194/22 87/57/22 88/56/22 19/195/22
f 19/44/8 88/23/8 89/22/8 48/45/8
f 48/45/8 89/22/8 90/135/8 47/130/8
f 47/130/8 90/135/8 91/134/8 17/196/8
f 17/197/20 91/50/20 92/49/20 15/198/20
f 15/69/1 92/109/1 93/108/1 39/111/1
f 39/111/1 93/108/1 94/110/1 67/114/1
f 67/114/1 94/110/1 77/3/1 40/36/1
